<svg
className="w-40 h-[100%]"
xmlns="http://www.w3.org/2000/svg"
width="200"
height="63"
viewBox="0 0 200 63"
fill="none"
>
<path
    d="M31.6935 1.10474C30.0483 2.39775 2.001 30.4913 1.17839 31.6276C0.120741 33.1165 0.316602 35.0364 1.64845 36.3686C2.98031 37.7008 4.15547 37.8184 5.8007 36.7604C6.46663 36.3686 12.93 30.1387 20.216 22.89C27.4629 15.6021 33.5346 9.68562 33.7304 9.68562C33.8871 9.68562 39.998 15.6805 47.3232 23.0467C54.6484 30.3738 61.1118 36.6429 61.6993 36.9564C63.2271 37.74 64.3239 37.6225 65.8124 36.4862C66.7525 35.7809 67.1051 35.1932 67.1051 34.3312C67.1051 32.6463 66.5567 31.7843 63.7755 28.8848L61.2684 26.338L61.1509 17.2478C60.9942 5.80659 61.4251 6.51187 54.5308 6.43351C48.42 6.35514 47.9891 6.59024 47.8324 10.3125L47.7149 12.8986L44.1111 9.21544C42.1524 7.21715 39.6454 4.63113 38.5486 3.49485C37.491 2.39775 36.4333 1.45738 36.1983 1.45738C36.0024 1.45738 35.7674 1.26147 35.689 1.06556C35.6107 0.830471 34.9448 0.556194 34.2005 0.438648C33.1429 0.242737 32.5553 0.399467 31.6935 1.10474Z"
    fill="#EA0319"
/>
<path
    d="M94.9233 6.63218C91.7896 7.455 90.6928 7.92518 88.6558 9.29656C84.0335 12.4311 81.7615 17.564 81.8398 24.5776C81.879 28.7309 82.2707 30.259 84.2685 34.2947C86.8931 39.506 94.3358 42.7973 100.525 41.4259C104.207 40.6422 108.634 37.9387 108.634 36.4889C108.634 36.2147 107.693 34.9608 106.518 33.7462L104.403 31.5128L103.071 32.6099C99.7807 35.3918 95.8243 35.3135 92.9647 32.3356C90.9278 30.2198 90.1835 28.1823 90.1835 24.4208C90.1052 17.4856 92.9256 13.6066 98.0179 13.6066C100.407 13.6066 101.426 13.9592 103.032 15.3306C103.972 16.1142 103.815 16.2318 107.302 12.0785L108.399 10.7463L107.263 9.80593C103.972 7.10236 98.4488 5.6918 94.9233 6.63218Z"
    fill="#EA0319"
/>
<path
    d="M122.735 14.7809C119.327 15.2903 114.626 17.1318 114.274 18.0722C114.195 18.3073 114.626 19.522 115.331 20.7758C116.624 23.2051 117.133 23.401 119.249 22.3431C120.776 21.5594 121.011 21.5202 123.753 21.2068C126.221 20.8933 128.336 21.5594 129.198 22.8524C129.551 23.401 129.786 23.9103 129.708 23.9495C129.629 23.9887 127.514 24.3414 124.968 24.7332C116.585 25.9478 113.294 28.3379 113.255 33.3141C113.216 36.3703 113.294 36.6837 114.626 38.4469C117.016 41.5423 120.502 42.3259 126.064 40.9154C126.926 40.7195 129.982 38.9563 130.256 38.5645C130.413 38.2902 130.687 38.5645 130.922 39.2305C131.157 39.8183 131.274 40.4844 131.118 40.6803C131 40.8762 132.45 41.0329 134.487 41.0329H138.09L137.934 31.9035C137.816 25.8303 137.581 22.3431 137.229 21.4419C136.406 19.2085 134.408 16.8184 132.45 15.7997C130.373 14.7026 126.182 14.2716 122.735 14.7809ZM129.786 31.1982C129.786 32.9614 129.668 33.1965 128.532 33.9018C126.809 34.9597 124.145 35.6258 122.931 35.3123C122.382 35.1556 121.638 34.6462 121.325 34.1369C119.719 31.7468 123.048 29.5134 128.532 29.3175C129.786 29.2783 129.786 29.2783 129.786 31.1982Z"
    fill="#EA0319"
/>
<path
    d="M154.262 14.6237C150.227 15.1723 147.133 17.053 145.879 19.6391C144.587 22.4602 144.939 25.3596 146.859 27.3579C147.955 28.5334 151.677 30.1007 155.046 30.8843C158.375 31.6288 160.647 32.4124 160.843 32.9218C161.156 33.823 160.373 35.116 159.354 35.3903C157.396 35.8604 153.165 35.3119 150.541 34.1756C147.094 32.7259 146.624 32.7651 145.605 34.3715C145.096 35.116 144.43 36.0564 144.117 36.409C143.764 36.8008 143.49 37.271 143.49 37.5061C143.49 37.702 144.822 38.5248 146.467 39.3085C150.502 41.2284 155.241 42.0512 158.963 41.4635C163.272 40.7974 163.507 40.719 165.465 39.3868C170.714 35.8213 170.127 29.1603 164.368 26.4959C163.468 26.0649 160.765 25.2421 158.336 24.6152C155.946 23.9883 153.714 23.2046 153.361 22.8912C152.813 22.3034 152.813 22.1859 153.479 21.4414C154.066 20.8145 154.654 20.6578 156.769 20.6578C159.394 20.6578 160.961 21.0496 163.468 22.3426C164.839 23.0479 164.839 23.0479 165.544 22.1467C165.935 21.6373 166.68 20.697 167.189 20.0701C168.521 18.4636 168.403 17.7975 166.719 16.9355C162.723 15.0156 157.944 14.1144 154.262 14.6237Z"
    fill="#EA0319"
/>
<path
    d="M184.615 14.7389C182.186 15.0915 181.559 15.2874 177.446 17.0898L175.605 17.9126L176.193 19.0881C176.506 19.715 176.819 20.3811 176.819 20.5378C176.819 20.7337 177.054 21.1256 177.329 21.439C177.603 21.7525 177.955 22.3402 178.073 22.6928C178.347 23.4373 178.425 23.3981 181.285 22.1835C183.792 21.1256 186.769 20.7729 188.689 21.3215C190.216 21.7917 191.666 23.0063 191.666 23.8291C191.666 23.9859 190.295 24.2209 188.649 24.3777C179.679 25.2005 175.292 27.9824 174.9 33.1545C174.508 38.4832 179.17 42.4406 184.85 41.5786C185.79 41.4611 186.612 41.3827 186.652 41.4219C186.808 41.5786 190.099 39.8938 191.313 39.0318C192.527 38.209 192.841 38.4049 192.841 39.933V41.0301H196.17H199.5V32.2925C199.461 22.732 199.226 20.9688 197.581 18.5395C195.465 15.4442 190.412 13.9944 184.615 14.7389ZM191.666 31.1954V33.1545L189.433 34.2516C188.179 34.8393 186.534 35.3487 185.711 35.3487C182.421 35.3487 181.559 31.9006 184.536 30.5684C186.299 29.824 188.258 29.393 190.216 29.3146L191.666 29.2754V31.1954Z"
    fill="#EA0319"
/>
<path
    d="M23.6183 26.7682C20.1711 28.2571 18.5259 31.039 18.5259 35.4666C18.5259 39.0322 19.0743 40.6387 20.9546 42.5586C22.6781 44.3218 24.245 44.9095 27.2613 44.9879C29.2982 45.0271 30.0033 44.8703 31.3352 44.0475C33.3329 42.7937 34.4298 41.2656 34.939 39.0322C36.2709 33.3508 34.3514 28.5314 30.0425 26.729C28.2406 25.9846 25.381 25.9846 23.6183 26.7682ZM28.1622 32.4888C28.5931 33.5075 28.5931 37.2298 28.1622 38.562C27.7705 39.8158 26.6737 40.0509 25.8902 39.0714C25.0676 38.0526 24.9109 34.2128 25.6552 32.6063C26.2036 31.3525 27.653 31.2741 28.1622 32.4888Z"
    fill="#EA0319"
/>
<path
    d="M43.8748 28.2232C35.3744 38.9199 35.7661 38.3322 36.4321 39.2334C36.7846 39.6644 37.6072 40.4872 38.234 40.9966C39.2133 41.8194 39.4483 41.8586 39.84 41.3884C40.0751 41.0749 41.6028 39.7035 43.2088 38.293C44.8149 36.8824 46.9694 34.9233 48.027 33.9438L49.9464 32.1806L47.5178 29.8297C46.1859 28.5758 45.0108 27.4787 44.8541 27.4396C44.6974 27.4004 44.2665 27.753 43.8748 28.2232Z"
    fill="#EA0319"
/>
<path
    d="M36.9441 44.4022C33.4969 45.8911 32.0475 48.6338 32.0867 53.5708C32.1259 60.4276 38.2367 64.5418 44.2301 61.7598C50.7718 58.6645 50.576 47.1841 43.8775 44.363C42.0756 43.6185 38.746 43.6185 36.9441 44.4022ZM42.0364 51.2982C43.0157 54.8246 41.1746 58.4294 39.3727 56.627C38.6676 55.9217 38.746 50.7889 39.5294 49.7309C40.352 48.5163 41.488 49.1824 42.0364 51.2982Z"
    fill="#EA0319"
/>
<path
    d="M26.2865 47.967C25.1506 48.9858 23.5053 50.4747 22.6435 51.2583C21.7818 52.0028 20.2932 53.3742 19.3531 54.2362L17.5903 55.8426L19.9407 58.0368C21.1942 59.2123 22.4477 60.231 22.6827 60.231C22.9569 60.231 23.5837 59.6433 24.1321 58.938C24.6805 58.2719 25.5423 57.214 26.0515 56.6263C28.9111 53.335 31.4573 50.0045 31.4573 49.5735C31.4573 49.3384 30.7522 48.4372 29.8904 47.6144L28.3235 46.0863L26.2865 47.967Z"
    fill="#EA0319"
/>
<path
    d="M83.8798 54.039C83.8407 56.0373 83.7623 58.5449 83.7232 59.642C83.6448 62.1889 83.8407 62.5807 85.0158 62.5807C85.9168 62.5807 85.956 62.5023 85.8776 60.3081C85.7601 58.349 85.8385 58.0747 86.5436 57.9572C87.1311 57.8788 87.6404 58.4274 88.6589 60.1906C89.834 62.228 90.1866 62.5807 91.1267 62.5807C92.106 62.5807 92.1843 62.4631 91.9493 61.6795C91.7926 61.2093 91.2442 60.1514 90.735 59.3286L89.7948 57.8005L90.7741 56.8993C91.5576 56.1548 91.7926 55.5671 91.7926 54.2741C91.7926 53.3337 91.5184 52.2758 91.205 51.8448C90.6175 51.0612 88.3063 50.4734 85.6426 50.4342H83.9582L83.8798 54.039ZM89.0897 52.7852C90.735 53.6864 89.5598 55.9589 87.3662 56.0765C86.1518 56.1156 86.1127 56.0765 85.9951 54.2349C85.8776 52.3933 85.8776 52.3933 87.092 52.3933C87.7579 52.3933 88.6589 52.5893 89.0897 52.7852Z"
    fill="#EA0319"
/>
<path
    d="M94.5332 56.5075V62.5807H98.4504H102.368V61.6011C102.368 60.6608 102.289 60.6216 99.6256 60.6216H96.8835V58.8192V57.056L99.1555 57.1736C101.232 57.2911 101.388 57.2127 101.506 56.3899C101.584 55.9197 101.506 55.4887 101.31 55.4887C101.153 55.4495 100.213 55.3712 99.2339 55.332C98.2546 55.2536 97.3536 55.1753 97.1969 55.1753C97.001 55.1361 96.8835 54.5092 96.8835 53.7647V52.3933H99.6256C102.289 52.3933 102.368 52.3542 102.368 51.4138V50.4342H98.4504H94.5332V56.5075Z"
    fill="#EA0319"
/>
<path
    d="M105.019 56.4683L105.137 62.5807H107.487C111.6 62.5807 113.324 61.131 113.598 57.3695C113.99 52.8243 111.953 50.6301 107.252 50.4734L104.902 50.3951L105.019 56.4683ZM109.759 52.9811C111.091 53.6472 111.209 53.9214 111.326 56.5858C111.404 58.3882 111.287 58.78 110.347 59.642C109.72 60.1906 108.819 60.6216 108.192 60.6216H107.056V56.5075C107.056 52.6284 107.095 52.3933 107.84 52.3933C108.31 52.3933 109.172 52.6676 109.759 52.9811Z"
    fill="#EA0319"
/>
<path
    d="M115.282 54.2349C115.282 60.9742 116.105 62.5807 119.552 62.5807C123.313 62.5415 123.978 61.4052 123.822 55.1361L123.704 50.6301H122.725H121.746V54.9794C121.746 59.7596 121.432 60.6216 119.591 60.6216C117.868 60.6216 117.633 59.9555 117.789 55.4887C117.828 53.2553 117.828 51.1787 117.711 50.9044C117.633 50.6693 117.045 50.4342 116.418 50.4342H115.282V54.2349Z"
    fill="#EA0319"
/>
<path
    d="M128.513 51.1011C125.223 53.1777 124.988 59.5252 128.161 61.7586C129.728 62.8949 133.253 62.8949 134.272 61.7978C134.624 61.406 134.859 60.7791 134.742 60.4264C134.467 59.7603 133.096 59.6428 132.705 60.2305C132.313 60.8966 129.923 60.6615 129.297 59.9171C128.435 58.9767 128.082 56.9784 128.396 55.0977C128.631 53.8046 128.905 53.4128 130.002 52.8643C131.138 52.3549 131.569 52.3157 132.626 52.7075C133.645 53.0994 133.958 53.0602 134.428 52.59C136.073 50.9444 130.864 49.6122 128.513 51.1011Z"
    fill="#EA0319"
/>
<path
    d="M137.498 50.7085C137.342 50.8261 137.224 53.5688 137.224 56.7817V62.5807H141.376C145.45 62.5807 145.489 62.5807 145.372 61.6795C145.254 60.8959 145.019 60.8175 142.395 60.6999L139.535 60.5824L139.653 58.9368L139.77 57.2911L142.042 57.1736C144.158 57.056 144.314 56.9776 144.197 56.194C144.079 55.4495 143.805 55.332 142.316 55.2928C141.337 55.2536 140.319 55.2145 140.084 55.1753C139.77 55.1361 139.574 54.5875 139.574 53.7647V52.3933H142.316C144.98 52.3933 145.059 52.3542 145.059 51.4138C145.059 50.4342 145.059 50.4342 141.416 50.4342C139.379 50.4342 137.616 50.5518 137.498 50.7085Z"
    fill="#EA0319"
/>
<path
    d="M147.792 56.4683V62.5807H148.967H150.142V60.1906C150.142 58.1923 150.259 57.8397 150.808 57.9572C151.395 58.0747 151.905 58.7408 153.471 61.4836C153.942 62.3456 154.372 62.5807 155.43 62.5807H156.762L155.391 60.1906L153.981 57.8397L154.999 56.8209C156.409 55.4104 156.409 52.9027 155.038 51.6097C154.255 50.8652 153.55 50.6693 150.925 50.5518L147.792 50.3559V56.4683ZM153.354 53.0594C154.764 54.3133 154.02 55.8022 151.865 55.9981C150.024 56.1156 149.789 55.7238 150.103 52.6676C150.181 52.1191 152.649 52.3933 153.354 53.0594Z"
    fill="#EA0319"
/>
<path
    d="M158.371 51.4214C158.371 52.2834 158.527 52.4009 159.742 52.4009H161.113V56.515V60.6292H159.742C158.527 60.6292 158.371 60.7467 158.371 61.6087V62.6274L162.405 62.5099C166.088 62.3923 166.401 62.3532 166.401 61.6087C166.401 60.9818 166.088 60.7859 164.952 60.7075L163.463 60.59V56.4367V52.3225L164.638 52.4793C165.852 52.6752 166.283 52.3617 166.479 51.1079C166.597 50.5202 166.166 50.4418 162.484 50.4418H158.371V51.4214Z"
    fill="#EA0319"
/>
<path
    d="M169.734 56.5075V62.5807H173.69C177.529 62.5807 177.607 62.5807 177.49 61.6795C177.372 60.8959 177.137 60.8175 174.748 60.6999L172.084 60.5824V55.5279V50.4342H170.909H169.734V56.5075Z"
    fill="#EA0319"
/>
<path
    d="M180.774 51.5705C178.541 53.8431 178.502 59.0543 180.695 61.4052C181.635 62.3848 182.066 62.5807 183.712 62.5807C184.73 62.5807 185.866 62.3456 186.219 62.0713C188.961 59.9555 189.196 53.8431 186.61 51.5313C184.848 49.9641 182.38 50.0032 180.774 51.5705ZM184.887 52.7068C186.179 53.5296 186.532 57.0168 185.631 59.2502C185.122 60.4257 184.848 60.6216 183.712 60.6216C182.066 60.6216 181.479 59.5637 181.479 56.4683C181.479 53.2553 183.046 51.5313 184.887 52.7068Z"
    fill="#EA0319"
/>
<path
    d="M190.495 56.4683V62.5807H191.67H192.845V60.1906C192.845 57.9572 192.884 57.8397 193.707 57.9572C194.255 58.0356 194.647 58.3882 194.725 58.8584C194.804 59.2894 195.078 59.7988 195.313 60.0339C195.587 60.2298 196.018 60.8959 196.253 61.4836C196.645 62.3848 196.997 62.5807 198.094 62.5807H199.465L198.055 60.1906L196.605 57.8005L197.467 57.1344C198.76 56.194 199.308 53.8823 198.564 52.4325C197.781 50.9828 197.232 50.7869 193.55 50.5518L190.495 50.3559V56.4683ZM196.175 53.0203C197.076 53.9214 196.762 55.2536 195.469 55.8414C193.668 56.7034 192.845 56.1548 192.845 54.1174C192.845 52.4325 192.845 52.3933 194.177 52.3933C194.921 52.3933 195.822 52.6676 196.175 53.0203Z"
    fill="#EA0319"
/>
</svg>