<svg width="24" height="24" viewBox="0 0 24 24" fill="none" xmlns="http://www.w3.org/2000/svg">
  <path d="M21 21H4C3.45 21 3 20.55 3 20V3" stroke="#A5B4FC" stroke-width="2" stroke-linecap="round" stroke-linejoin="round"/>
  <path d="M7 14L12 9L16 13L21 8" stroke="#A5B4FC" stroke-width="2" stroke-linecap="round" stroke-linejoin="round"/>
  <path d="M7 14C8.10457 14 9 13.1046 9 12C9 10.8954 8.10457 10 7 10C5.89543 10 5 10.8954 5 12C5 13.1046 5.89543 14 7 14Z" fill="#A5B4FC"/>
  <path d="M12 9C13.1046 9 14 8.10457 14 7C14 5.89543 13.1046 5 12 5C10.8954 5 10 5.89543 10 7C10 8.10457 10.8954 9 12 9Z" fill="#A5B4FC"/>
  <path d="M16 13C17.1046 13 18 12.1046 18 11C18 9.89543 17.1046 9 16 9C14.8954 9 14 9.89543 14 11C14 12.1046 14.8954 13 16 13Z" fill="#A5B4FC"/>
  <path d="M21 8C22.1046 8 23 7.10457 23 6C23 4.89543 22.1046 4 21 4C19.8954 4 19 4.89543 19 6C19 7.10457 19.8954 8 21 8Z" fill="#A5B4FC"/>
</svg> 