<svg width="24" height="24" viewBox="0 0 24 24" fill="none" xmlns="http://www.w3.org/2000/svg">
  <path d="M19 8.71L17.33 7.04C16.94 6.65 16.29 6.65 15.9 7.04L11.73 11.21L9.1 8.58C8.71 8.19 8.06 8.19 7.67 8.58L5.99 10.26C5.6 10.65 5.6 11.3 5.99 11.69L11.44 17.14C11.83 17.53 12.48 17.53 12.87 17.14L19 11.01C19.39 10.62 19.39 9.97 19 8.71Z" fill="#A5B4FC"/>
  <path d="M12 2C6.48 2 2 6.48 2 12C2 17.52 6.48 22 12 22C17.52 22 22 17.52 22 12C22 6.48 17.52 2 12 2ZM12 20C7.58 20 4 16.42 4 12C4 7.58 7.58 4 12 4C16.42 4 20 7.58 20 12C20 16.42 16.42 20 12 20Z" fill="#A5B4FC"/>
</svg> 