<svg width="24" height="24" viewBox="0 0 24 24" fill="none" xmlns="http://www.w3.org/2000/svg">
  <path d="M12 2C10.5 4 7.5 7.5 7.5 10.5C7.5 12.5 9 14 10.5 14C10.5 14 10 12 10 10.5C10 9 12 6.5 12 6.5C12 6.5 14 9 14 10.5C14 12 13.5 14 13.5 14C15 14 16.5 12.5 16.5 10.5C16.5 7.5 13.5 4 12 2Z" fill="white"/>
  <path d="M12 15C10.8954 15 10 15.8954 10 17C10 18.1046 10.8954 19 12 19C13.1046 19 14 18.1046 14 17C14 15.8954 13.1046 15 12 15Z" fill="white"/>
  <path d="M16 21.5C16 20.837 15.7366 20.2011 15.2678 19.7322C14.7989 19.2634 14.163 19 13.5 19H10.5C9.83696 19 9.20107 19.2634 8.73223 19.7322C8.26339 20.2011 8 20.837 8 21.5C8 21.7652 8.10536 22.0196 8.29289 22.2071C8.48043 22.3946 8.73478 22.5 9 22.5H15C15.2652 22.5 15.5196 22.3946 15.7071 22.2071C15.8946 22.0196 16 21.7652 16 21.5Z" fill="white"/>
</svg> 