<svg width="24" height="24" viewBox="0 0 24 24" fill="none" xmlns="http://www.w3.org/2000/svg">
  <path d="M13 3C13 2.44772 12.5523 2 12 2C11.4477 2 11 2.44772 11 3V4.05125C9.47455 4.28184 8.28184 5.47455 8.05125 7H7C6.44772 7 6 7.44772 6 8C6 8.55228 6.44772 9 7 9H8.05125C8.28184 10.5254 9.47455 11.7182 11 11.9487V13.0513C9.47455 13.2818 8.28184 14.4746 8.05125 16H7C6.44772 16 6 16.4477 6 17C6 17.5523 6.44772 18 7 18H8.05125C8.28184 19.5254 9.47455 20.7182 11 20.9487V22C11 22.5523 11.4477 23 12 23C12.5523 23 13 22.5523 13 22V20.9487C14.5254 20.7182 15.7182 19.5254 15.9487 18H17C17.5523 18 18 17.5523 18 17C18 16.4477 17.5523 16 17 16H15.9487C15.7182 14.4746 14.5254 13.2818 13 13.0513V11.9487C14.5254 11.7182 15.7182 10.5254 15.9487 9H17C17.5523 9 18 8.55228 18 8C18 7.44772 17.5523 7 17 7H15.9487C15.7182 5.47455 14.5254 4.28184 13 4.05125V3Z" fill="white"/>
</svg> 