<?xml version="1.0" encoding="UTF-8"?>
<svg id="Layer_2" data-name="Layer 2" xmlns="http://www.w3.org/2000/svg" viewBox="0 0 102.98 116.08">
  <defs>
    <style>
      .cls-1 {
        fill: #101928;
      }
    </style>
  </defs>
  <g id="Layer_1-2" data-name="Layer 1">
    <path class="cls-1" d="M18.09,15.35C1.12,33.27-2.57,69.05,1.53,91.66c7.93,43.79,21.23,16.58,40.44,10.41,19.68-6.32,45.76-3.23,56.58-31.69C121,11.3,52.59-21.06,18.09,15.35ZM50.92,60.5c-4.92,0-8.95-4.85-8.95-10.81s4.03-10.81,8.95-10.81,8.98,4.85,8.98,10.81-4.03,10.81-8.98,10.81ZM73.8,60.5c-4.96,0-8.95-4.85-8.95-10.81s3.99-10.81,8.95-10.81,8.95,4.85,8.95,10.81-4.03,10.81-8.95,10.81Z"/>
  </g>
</svg>