<?xml version="1.0" encoding="UTF-8"?>
<svg id="Layer_2" data-name="Layer 2" xmlns="http://www.w3.org/2000/svg" viewBox="0 0 787.92 89.4">
  <defs>
    <style>
      .cls-1 {
        fill: #fffcf0;
      }
    </style>
  </defs>
  <g id="Layer_1-2" data-name="Layer 1">
    <g>
      <g>
        <g>
          <path class="cls-1" d="M114.88,18.98c-7.83,0-13.49,3.82-15.46,6.26V0h-18.09v68.5h18.09v-21.34c0-8.53,4.6-14.3,11.37-14.3,7.83,0,9.59,7.44,9.59,14.59v21.04h18.09v-22.23c0-14-5.66-27.3-23.58-27.3Z"/>
          <path class="cls-1" d="M259.99,18.98c-7.04,0-13.49,3.33-16.73,7.04v-7.15h-18.09v49.63h18.09l-.08-21.34c0-5.58,3.52-14.4,12.62-14.4s10.18,8.42,10.18,14.89v20.85h18.11v-22.42c0-15.57-7.93-27.1-24.09-27.1Z"/>
          <path class="cls-1" d="M328.01,54.02c-7.64,0-13.81-3.44-13.81-11.26v-12.43h12.92v-11.45h-12.81V0h-18.3v41.19c0,16.16,8.5,26.34,24.75,27.21,1.76.11,3.82.11,5.87.11h5.58v-14.49h-4.2Z"/>
          <path class="cls-1" d="M368.11,18.88c-13.98,0-28.16,9.88-28.16,24.86s14.19,24.77,28.16,24.77,28.19-9.8,28.19-24.77-14.19-24.86-28.19-24.86ZM368.11,53.91c-6.07,0-11.73-4.2-11.73-10.18s5.66-10.26,11.73-10.26,11.75,4.09,11.75,10.26-5.87,10.18-11.75,10.18Z"/>
          <path class="cls-1" d="M469.6,18.88c-7.44,0-14,3.22-17.9,7.83-2.35-4.6-8.53-7.72-15.67-7.72-5.96,0-11.16,2.35-14.46,5.17v-5.17h-17.33v49.52h17.33c0-5.58-.11-21.25-.11-26.62,0-3.63,3.52-9.2,10.18-9.2,5.17,0,7.34,4.79,7.34,11.35v24.47h16.54v-24.86c0-5.87,3.71-10.88,9.78-10.88,5.2,0,7.83,3.63,7.83,10.88v24.86h16.54v-26.72c0-14.59-6.07-22.91-20.06-22.91Z"/>
          <path class="cls-1" d="M588.19,54.02c-7.63,0-13.81-3.44-13.81-11.26v-12.43h12.92v-11.45h-12.81V0h-18.3v41.19c0,16.16,8.5,26.34,24.75,27.21,1.76.11,3.82.11,5.87.11h5.58v-14.49h-4.2Z"/>
          <path class="cls-1" d="M657.27,47.06v-3.03c0-13.89-12.81-25.24-28.19-25.24s-28.08,11.24-28.08,24.86,12.73,24.75,28.38,24.75c11.07,0,22.31-6.07,26.32-16.14l-16.73-2.84c-1.55,2.14-4.88,4.41-9.48,4.41-6.96,0-11.86-4.9-11.86-10.1,0-5.77,5.2-10.37,11.86-10.37,5.28,0,8.99,3.44,10.26,6.74l-18.39,4.22,35.91,2.74Z"/>
          <path class="cls-1" d="M695.53,54.02c-6.47,0-11.75-4.6-11.75-10.29s5.2-10.18,11.86-10.18c4.88,0,8.8,2.65,10.37,5.79l15.95-4.03c-4.01-9.78-14.59-16.33-26.43-16.33-15.46,0-28.19,11.05-28.19,24.75s12.73,24.86,28.08,24.86c11.16,0,21.06-5.66,25.64-14.27l-15.55-5.3c-1.57,2.35-5.28,5.01-9.99,5.01Z"/>
          <path class="cls-1" d="M764.31,18.98c-7.83,0-13.49,3.82-15.46,6.26V0h-18.09v68.5h18.09v-21.34c0-8.53,4.6-14.3,11.37-14.3,7.83,0,9.59,7.44,9.59,14.59v21.04h18.11v-22.23c0-14-5.68-27.3-23.61-27.3Z"/>
        </g>
        <path class="cls-1" d="M11.2,20.74C-.43,32.4-1.17,57.38.9,72.79c4.11,30.41,14.94,10.77,26.55,5.48,13.75-6.26,31.72-1.99,39.14-19.88C83.09,18.47,35.17-3.31,11.2,20.74ZM34.34,51.7c-3.33,0-6.06-3.28-6.06-7.32s2.73-7.32,6.06-7.32,6.08,3.28,6.08,7.32-2.73,7.32-6.08,7.32ZM49.83,51.7c-3.36,0-6.06-3.28-6.06-7.32s2.7-7.32,6.06-7.32,6.06,3.28,6.06,7.32-2.73,7.32-6.06,7.32Z"/>
      </g>
      <path class="cls-1" d="M207.9,33.21c-1.54-3.08-3.64-5.76-6.31-8.07-2.66-2.3-5.79-4.12-9.35-5.47-3.54-1.33-7.37-2-11.47-2s-7.83.67-11.41,2c-3.6,1.35-6.72,3.17-9.41,5.47-2.66,2.3-4.77,4.99-6.31,8.07-1.54,3.08-2.31,6.39-2.31,9.92s.77,6.77,2.31,9.88c1.54,3.1,3.64,5.8,6.31,8.07,2.69,2.27,5.81,4.09,9.41,5.42,3.58,1.33,7.39,2,11.41,2,3.71,0,7.18-.54,10.43-1.6,3.25-1.06,6.14-2.57,8.7-4.52l1.73,4.12h8.6v-23.37c0-3.53-.79-6.84-2.33-9.92ZM188.7,51.36c-2.19,2-4.85,3.01-7.93,3.01s-5.83-1.01-7.99-3.01c-2.16-2-3.25-4.75-3.25-8.23s1.08-6.23,3.25-8.26c2.16-2.03,4.83-3.06,7.99-3.06s5.75,1.03,7.93,3.06c2.21,2.03,3.31,4.79,3.31,8.26s-1.1,6.23-3.31,8.23Z"/>
    </g>
  </g>
</svg>